<?xml version="1.0" encoding="UTF-8" standalone="no"?>
<!DOCTYPE svg PUBLIC "-//W3C//DTD SVG 1.1//EN" "http://www.w3.org/Graphics/SVG/1.1/DTD/svg11.dtd">
<svg viewBox="0 0 1246 72" height="72.0pt" width="1246.0pt" xmlns="http://www.w3.org/2000/svg" version="1.1">
<path d="M 0.00 0.00 L 579.22 0.00 C 564.39 2.57 550.74 8.92 538.33 17.33 C 527.39 24.29 518.43 31.88 505.90 36.01 C 503.68 36.69 500.24 38.32 498.05 37.22 C 492.21 31.46 491.60 20.92 496.37 14.37 C 500.68 9.14 508.35 9.46 513.00 14.01 C 515.17 16.20 516.75 19.61 517.33 22.60 C 518.12 22.67 518.92 22.67 519.73 22.61 C 519.40 18.26 516.84 15.06 513.96 12.02 C 508.89 7.79 500.13 7.54 495.26 12.23 C 491.08 16.29 489.27 22.81 490.16 28.51 C 490.61 32.60 492.60 35.29 494.24 39.08 C 488.33 40.07 482.85 39.25 477.52 36.55 C 474.28 35.19 471.73 32.37 469.03 30.16 C 471.19 35.14 476.29 37.94 481.25 39.48 C 486.07 41.22 491.47 39.94 496.00 40.55 C 499.09 42.15 501.44 44.35 505.02 44.91 C 513.88 46.73 523.25 42.79 531.18 39.20 C 542.52 33.41 553.36 26.13 563.63 18.63 C 564.75 18.02 565.83 17.34 566.94 16.71 C 566.74 20.11 566.31 23.74 568.12 26.80 C 568.65 28.04 569.76 29.36 569.81 30.72 C 564.47 33.57 558.59 35.37 553.20 38.16 C 545.33 41.22 537.70 44.79 529.76 47.69 C 519.48 51.01 509.81 54.51 498.97 56.02 C 488.59 58.37 477.75 58.07 467.79 54.14 C 463.56 52.62 459.25 49.71 457.74 45.28 C 456.95 42.18 457.53 38.90 459.25 36.22 C 462.20 31.53 467.36 28.95 472.74 28.24 C 476.83 27.42 480.52 28.39 484.62 28.39 C 484.99 28.12 485.35 27.84 485.71 27.56 C 481.71 27.35 478.08 25.80 473.98 26.20 C 466.95 26.21 460.12 29.10 456.15 35.08 C 453.42 38.93 454.29 44.42 454.67 48.85 C 450.06 44.23 446.22 38.97 441.94 34.04 C 436.16 27.11 429.95 18.53 422.14 13.87 C 416.24 10.72 407.47 10.27 402.86 15.87 C 399.25 19.61 398.97 25.15 400.06 29.97 C 400.91 33.47 403.48 35.87 406.50 37.61 C 409.07 39.02 411.97 39.93 414.81 38.73 C 417.51 37.60 420.54 35.41 420.89 32.27 C 418.56 34.38 416.42 36.71 413.01 36.62 C 409.09 36.90 405.61 33.44 403.94 30.21 C 403.15 27.80 403.24 24.92 403.71 22.45 C 405.36 17.41 410.99 14.71 416.04 16.05 C 421.35 16.82 425.85 20.82 429.66 24.34 C 436.05 30.59 441.93 37.45 447.74 44.23 C 454.42 52.66 464.41 58.93 475.26 59.82 C 494.44 62.50 513.35 56.71 531.19 50.28 C 538.76 47.02 546.50 44.68 553.81 40.81 C 560.19 37.98 566.56 35.10 572.98 32.37 C 578.18 35.72 585.75 35.09 590.82 31.78 C 592.88 30.71 593.78 27.88 594.99 26.00 C 595.50 24.58 597.75 24.71 598.97 24.53 C 605.87 24.00 612.71 24.31 618.49 28.54 C 622.06 32.52 622.62 37.05 623.49 42.11 C 624.13 45.39 622.90 49.03 623.75 52.24 C 625.13 52.85 626.14 52.79 626.79 52.07 C 626.87 48.68 625.92 45.01 626.61 41.69 L 627.87 40.74 C 626.62 36.73 628.87 32.33 631.06 29.06 C 636.81 23.71 645.74 24.00 653.03 24.75 C 654.98 24.89 655.20 26.48 656.15 27.85 C 658.15 32.06 663.38 34.73 667.96 34.52 C 671.26 34.52 674.42 34.68 676.98 32.27 C 697.34 41.23 716.15 50.59 737.92 56.32 C 749.81 59.95 762.67 61.38 775.04 59.89 C 785.93 58.85 796.13 52.28 802.77 43.75 C 809.99 35.60 817.13 26.49 825.72 19.76 C 829.47 17.19 834.84 14.67 839.46 15.79 C 842.78 17.08 846.49 20.19 846.57 24.04 C 846.70 26.87 846.91 29.70 845.05 32.06 C 843.05 34.56 840.49 36.88 837.07 36.72 C 834.02 36.79 831.22 34.41 829.28 32.28 C 829.33 33.05 829.43 33.81 829.56 34.57 C 831.89 36.62 833.70 38.70 836.97 39.19 C 842.53 39.66 847.78 35.90 849.77 30.79 C 851.73 24.75 850.49 17.76 845.13 13.90 C 838.99 9.97 830.34 11.37 824.90 15.86 C 818.71 20.76 814.11 27.07 809.05 33.04 C 804.32 38.25 800.41 44.04 795.25 48.85 C 796.02 44.78 796.73 41.03 794.98 37.08 C 791.57 29.71 783.84 26.25 776.02 26.22 C 771.92 25.82 768.30 27.33 764.28 27.58 C 764.66 27.83 765.02 28.08 765.38 28.35 C 770.36 28.34 775.11 27.53 780.09 28.36 C 779.82 32.14 776.83 34.14 773.85 35.91 C 768.14 39.12 762.32 40.16 755.83 38.97 C 757.56 35.02 759.71 32.06 760.01 28.02 C 760.48 22.95 759.55 17.79 756.26 13.77 C 752.08 7.98 742.89 7.30 737.31 11.30 C 733.50 13.73 731.04 18.21 730.23 22.58 C 730.98 22.59 731.74 22.60 732.50 22.63 C 733.82 18.44 735.30 14.61 739.28 12.26 C 743.01 9.87 747.95 9.83 751.61 12.37 C 754.07 14.10 755.48 16.86 756.28 19.69 C 757.44 26.03 756.99 32.68 751.97 37.29 C 749.42 38.28 745.78 36.49 743.28 35.70 C 731.39 31.59 722.73 24.37 712.28 17.71 C 699.36 8.92 685.44 2.20 669.83 0.00 L 1246.00 0.00 L 1246.00 72.00 L 0.00 72.00 L 0.00 0.00 Z" fill="#fefefe" />
<path d="M 579.22 0.00 L 595.67 0.00 L 596.79 0.23 C 598.01 0.67 599.18 1.18 600.47 1.42 C 609.38 3.46 617.27 9.46 621.34 17.67 C 622.97 20.65 623.83 23.82 624.76 27.06 C 625.96 25.23 626.46 23.24 627.13 21.18 C 629.57 15.10 633.49 9.69 638.98 6.01 C 643.84 2.61 649.68 1.10 655.43 0.00 L 669.83 0.00 C 685.44 2.20 699.36 8.92 712.28 17.71 C 722.73 24.37 731.39 31.59 743.28 35.70 C 745.78 36.49 749.42 38.28 751.97 37.29 C 756.99 32.68 757.44 26.03 756.28 19.69 C 755.48 16.86 754.07 14.10 751.61 12.37 C 747.95 9.83 743.01 9.87 739.28 12.26 C 735.30 14.61 733.82 18.44 732.50 22.63 C 731.74 22.60 730.98 22.59 730.23 22.58 C 731.04 18.21 733.50 13.73 737.31 11.30 C 742.89 7.30 752.08 7.98 756.26 13.77 C 759.55 17.79 760.48 22.95 760.01 28.02 C 759.71 32.06 757.56 35.02 755.83 38.97 C 762.32 40.16 768.14 39.12 773.85 35.91 C 776.83 34.14 779.82 32.14 780.09 28.36 C 775.11 27.53 770.36 28.34 765.38 28.35 C 765.02 28.08 764.66 27.83 764.28 27.58 C 768.30 27.33 771.92 25.82 776.02 26.22 C 783.84 26.25 791.57 29.71 794.98 37.08 C 796.73 41.03 796.02 44.78 795.25 48.85 C 800.41 44.04 804.32 38.25 809.05 33.04 C 814.11 27.07 818.71 20.76 824.90 15.86 C 830.34 11.37 838.99 9.97 845.13 13.90 C 850.49 17.76 851.73 24.75 849.77 30.79 C 847.78 35.90 842.53 39.66 836.97 39.19 C 833.70 38.70 831.89 36.62 829.56 34.57 C 829.43 33.81 829.33 33.05 829.28 32.28 C 831.22 34.41 834.02 36.79 837.07 36.72 C 840.49 36.88 843.05 34.56 845.05 32.06 C 846.91 29.70 846.70 26.87 846.57 24.04 C 846.49 20.19 842.78 17.08 839.46 15.79 C 834.84 14.67 829.47 17.19 825.72 19.76 C 817.13 26.49 809.99 35.60 802.77 43.75 C 796.13 52.28 785.93 58.85 775.04 59.89 C 762.67 61.38 749.81 59.95 737.92 56.32 C 716.15 50.59 697.34 41.23 676.98 32.27 C 674.42 34.68 671.26 34.52 667.96 34.52 C 663.38 34.73 658.15 32.06 656.15 27.85 C 655.20 26.48 654.98 24.89 653.03 24.75 C 645.74 24.00 636.81 23.71 631.06 29.06 C 628.87 32.33 626.62 36.73 627.87 40.74 L 626.61 41.69 C 625.92 45.01 626.87 48.68 626.79 52.07 C 626.14 52.79 625.13 52.85 623.75 52.24 C 622.90 49.03 624.13 45.39 623.49 42.11 C 622.62 37.05 622.06 32.52 618.49 28.54 C 612.71 24.31 605.87 24.00 598.97 24.53 C 597.75 24.71 595.50 24.58 594.99 26.00 C 593.78 27.88 592.88 30.71 590.82 31.78 C 585.75 35.09 578.18 35.72 572.98 32.37 C 566.56 35.10 560.19 37.98 553.81 40.81 C 546.50 44.68 538.76 47.02 531.19 50.28 C 513.35 56.71 494.44 62.50 475.26 59.82 C 464.41 58.93 454.42 52.66 447.74 44.23 C 441.93 37.45 436.05 30.59 429.66 24.34 C 425.85 20.82 421.35 16.82 416.04 16.05 C 410.99 14.71 405.36 17.41 403.71 22.45 C 403.24 24.92 403.15 27.80 403.94 30.21 C 405.61 33.44 409.09 36.90 413.01 36.62 C 416.42 36.71 418.56 34.38 420.89 32.27 C 420.54 35.41 417.51 37.60 414.81 38.73 C 411.97 39.93 409.07 39.02 406.50 37.61 C 403.48 35.87 400.91 33.47 400.06 29.97 C 398.97 25.15 399.25 19.61 402.86 15.87 C 407.47 10.27 416.24 10.72 422.14 13.87 C 429.95 18.53 436.16 27.11 441.94 34.04 C 446.22 38.97 450.06 44.23 454.67 48.85 C 454.29 44.42 453.42 38.93 456.15 35.08 C 460.12 29.10 466.95 26.21 473.98 26.20 C 478.08 25.80 481.71 27.35 485.71 27.56 C 485.35 27.84 484.99 28.12 484.62 28.39 C 480.52 28.39 476.83 27.42 472.74 28.24 C 467.36 28.95 462.20 31.53 459.25 36.22 C 457.53 38.90 456.95 42.18 457.74 45.28 C 459.25 49.71 463.56 52.62 467.79 54.14 C 477.75 58.07 488.59 58.37 498.97 56.02 C 509.81 54.51 519.48 51.01 529.76 47.69 C 537.70 44.79 545.33 41.22 553.20 38.16 C 558.59 35.37 564.47 33.57 569.81 30.72 C 569.76 29.36 568.65 28.04 568.12 26.80 C 566.31 23.74 566.74 20.11 566.94 16.71 C 565.83 17.34 564.75 18.02 563.63 18.63 C 553.36 26.13 542.52 33.41 531.18 39.20 C 523.25 42.79 513.88 46.73 505.02 44.91 C 501.44 44.35 499.09 42.15 496.00 40.55 C 491.47 39.94 486.07 41.22 481.25 39.48 C 476.29 37.94 471.19 35.14 469.03 30.16 C 471.73 32.37 474.28 35.19 477.52 36.55 C 482.85 39.25 488.33 40.07 494.24 39.08 C 492.60 35.29 490.61 32.60 490.16 28.51 C 489.27 22.81 491.08 16.29 495.26 12.23 C 500.13 7.54 508.89 7.79 513.96 12.02 C 516.84 15.06 519.40 18.26 519.73 22.61 C 518.92 22.67 518.12 22.67 517.33 22.60 C 516.75 19.61 515.17 16.20 513.00 14.01 C 508.35 9.46 500.68 9.14 496.37 14.37 C 491.60 20.92 492.21 31.46 498.05 37.22 C 500.24 38.32 503.68 36.69 505.90 36.01 C 518.43 31.88 527.39 24.29 538.33 17.33 C 550.74 8.92 564.39 2.57 579.22 0.00 Z" fill="#131313" />
<path d="M 595.67 0.00 L 655.43 0.00 C 649.68 1.10 643.84 2.61 638.98 6.01 C 633.49 9.69 629.57 15.10 627.13 21.18 C 626.46 23.24 625.96 25.23 624.76 27.06 C 623.83 23.82 622.97 20.65 621.34 17.67 C 617.27 9.46 609.38 3.46 600.47 1.42 C 599.18 1.18 598.01 0.67 596.79 0.23 L 595.67 0.00 Z" fill="#fefefe" />
<path d="M 584.00 2.77 C 591.53 3.66 600.52 3.90 607.12 7.84 C 614.93 11.88 620.41 20.37 621.87 28.91 C 618.46 25.95 616.43 21.97 612.81 19.21 C 605.17 12.76 595.78 10.19 586.03 9.07 C 578.90 8.43 572.21 10.26 566.37 14.37 C 556.57 21.60 546.33 28.90 535.51 34.52 C 526.95 38.76 518.81 42.62 508.98 42.33 C 506.03 42.02 502.76 41.41 500.74 39.03 C 510.29 36.62 519.40 32.02 527.49 26.47 C 539.47 18.56 551.93 10.00 565.76 5.69 C 571.50 3.74 577.95 3.30 584.00 2.77 Z" fill="#fefefe" />
<path d="M 667.94 2.96 C 672.81 3.57 677.47 3.61 682.06 4.96 C 688.63 7.05 695.04 9.59 701.02 13.04 C 716.99 21.36 728.78 33.03 745.74 37.97 C 746.70 38.45 748.98 38.57 749.07 39.87 C 741.94 44.35 732.89 41.88 725.47 39.41 C 711.17 33.94 697.69 24.70 685.47 15.58 C 679.54 11.14 672.45 8.44 664.96 9.03 C 653.85 9.93 642.60 13.48 634.63 21.62 C 632.43 23.88 630.91 27.08 628.17 28.54 C 629.65 22.54 632.15 16.99 636.58 12.59 C 642.18 6.81 650.19 4.21 658.04 3.54 C 661.30 3.35 664.72 2.47 667.94 2.96 Z" fill="#fefefe" />
<path d="M 580.08 11.47 C 585.26 11.06 589.76 14.54 591.63 19.22 C 592.02 20.52 593.01 22.41 591.54 23.39 C 585.25 25.23 578.99 27.06 572.89 29.58 C 570.72 26.62 568.98 23.96 569.38 20.08 C 569.73 14.81 575.36 11.84 580.08 11.47 Z" fill="#fefefe" />
<path d="M 667.23 11.59 C 672.18 10.98 678.69 13.34 680.41 18.46 C 681.47 22.62 679.94 26.58 677.10 29.64 C 671.02 27.04 664.63 24.85 658.14 23.52 C 657.04 17.83 662.09 12.86 667.23 11.59 Z" fill="#fefefe" />
<path d="M 589.21 12.08 C 598.64 12.81 608.41 16.83 614.95 23.79 C 608.47 22.11 602.02 22.26 595.41 22.64 C 594.30 17.98 592.68 15.34 589.21 12.08 Z" fill="#fefefe" />
<path d="M 660.86 12.11 C 657.50 15.07 655.72 18.33 654.63 22.65 C 647.99 22.27 641.52 22.05 635.05 23.89 C 641.42 16.87 651.54 12.90 660.86 12.11 Z" fill="#fefefe" />
<path d="M 683.08 16.20 C 695.59 25.19 708.79 34.85 722.98 40.97 C 730.56 44.11 739.11 46.95 747.28 44.34 C 750.45 43.47 752.78 40.36 755.97 39.84 C 760.39 40.32 764.40 41.03 768.75 39.51 C 774.42 37.75 779.45 34.71 781.79 29.04 C 787.47 31.68 793.03 36.07 792.64 43.00 C 792.82 48.25 788.22 51.06 784.20 53.30 C 775.12 57.60 764.82 58.18 754.98 56.88 C 740.94 54.79 727.12 50.11 713.83 45.18 C 704.60 41.36 695.71 37.45 686.46 33.51 C 684.08 32.82 682.32 31.19 679.79 30.92 C 681.09 29.27 681.58 27.33 682.64 25.54 C 683.85 22.78 683.26 19.14 683.08 16.20 Z" fill="#fefefe" />
<path d="M 311.25 18.18 C 332.28 16.43 353.57 18.63 373.53 25.60 C 385.02 29.57 394.79 36.10 405.60 41.42 C 416.30 46.74 427.41 51.52 438.77 55.25 C 448.45 58.61 458.68 60.65 468.75 62.47 C 476.85 63.92 484.83 63.64 493.00 63.65 C 497.57 63.79 502.17 62.93 506.63 62.05 L 506.66 62.45 C 502.38 63.19 498.42 64.46 494.04 64.49 C 484.10 64.52 474.82 65.26 464.97 63.62 C 437.82 59.75 411.48 48.51 387.57 35.40 C 376.50 29.44 364.28 25.55 351.93 23.35 C 339.31 21.11 326.72 21.33 313.96 21.58 C 303.80 22.19 293.79 23.58 283.73 25.03 C 270.80 27.83 257.90 30.51 245.24 34.40 C 214.41 42.85 185.02 55.69 154.31 64.23 C 143.37 67.17 132.22 68.24 121.00 69.52 C 110.98 69.81 101.02 69.80 91.00 69.49 C 78.40 68.28 65.97 66.53 53.70 63.33 C 43.16 60.14 33.08 57.43 23.23 52.60 C 19.94 50.91 16.37 49.70 13.11 47.95 C 12.77 47.37 12.44 46.78 12.12 46.19 C 16.34 48.35 20.87 49.99 25.18 51.99 C 33.53 55.29 42.15 57.46 50.73 60.01 C 56.42 61.14 62.12 62.26 67.77 63.54 C 75.45 64.90 83.19 65.73 90.96 66.46 C 104.44 66.65 118.37 67.29 131.73 65.23 C 142.29 64.01 152.75 61.57 163.02 58.85 C 171.18 55.89 179.68 53.97 187.70 50.71 C 204.08 45.69 220.13 39.40 236.56 34.54 C 260.63 26.84 286.01 20.04 311.25 18.18 Z" fill="#131313" />
<path d="M 918.00 17.72 C 943.90 16.77 970.65 22.13 995.46 29.27 C 1020.75 36.41 1045.30 45.47 1070.21 53.72 C 1091.80 61.13 1115.08 66.67 1138.00 66.63 C 1144.69 66.86 1151.35 66.53 1158.04 66.47 C 1182.08 64.39 1206.56 59.37 1228.86 49.99 C 1231.92 48.64 1234.62 46.93 1237.96 46.29 C 1237.56 46.74 1237.14 47.18 1236.72 47.60 C 1226.53 52.48 1216.51 57.46 1205.53 60.37 C 1190.39 65.43 1174.85 67.99 1159.00 69.47 C 1134.63 70.38 1111.46 69.60 1087.99 62.12 C 1078.81 59.65 1069.76 56.38 1060.77 53.16 C 1049.53 48.94 1038.04 45.44 1026.77 41.25 C 1018.08 38.67 1009.43 36.00 1000.78 33.28 C 989.06 29.96 977.19 27.40 965.26 24.95 C 958.21 24.26 951.10 22.60 944.01 22.48 C 939.99 22.36 935.99 22.01 932.00 21.55 C 926.67 21.48 921.33 21.49 916.00 21.56 C 911.01 22.18 905.99 22.44 900.98 22.77 C 887.91 25.09 875.32 28.27 863.51 34.48 C 855.97 38.30 848.81 42.68 840.99 45.94 C 823.43 54.39 804.82 60.44 785.53 63.42 C 775.65 65.41 766.00 64.43 755.98 64.54 C 753.32 64.16 750.54 64.60 748.11 63.52 C 746.20 62.89 744.22 63.17 742.35 62.44 L 742.37 62.07 C 745.81 62.70 749.53 63.37 753.00 63.62 C 762.19 63.58 772.11 64.13 781.09 62.34 C 806.90 58.27 831.27 48.65 854.02 35.99 C 865.07 29.58 877.21 24.28 889.75 21.67 C 898.93 19.27 908.54 18.20 918.00 17.72 Z" fill="#131313" />
<path d="M 592.05 25.99 C 589.95 32.71 581.62 35.49 575.67 31.90 C 576.70 31.16 577.63 30.38 578.83 29.91 C 583.18 28.24 587.37 26.52 592.05 25.99 Z" fill="#fefefe" />
<path d="M 658.15 26.08 C 663.60 26.40 669.18 29.34 674.27 31.22 C 669.84 36.42 659.48 32.16 658.15 26.08 Z" fill="#fefefe" /></svg>