<?xml version="1.0" encoding="UTF-8" standalone="no"?>
<!DOCTYPE svg PUBLIC "-//W3C//DTD SVG 1.1//EN" "http://www.w3.org/Graphics/SVG/1.1/DTD/svg11.dtd">
<svg viewBox="0 0 1280 96" height="96.0pt" width="1280.0pt" xmlns="http://www.w3.org/2000/svg" version="1.1">
<path d="M 0.00 0.00 L 1280.00 0.00 L 1280.00 96.00 L 0.00 96.00 L 0.00 0.00 Z" fill="none" />
<path d="M 590.01 5.32 C 605.01 4.11 620.24 10.68 629.14 22.90 C 638.23 35.06 640.61 51.85 633.60 65.58 C 626.02 81.34 606.36 90.29 589.52 85.53 C 577.66 82.06 567.96 71.77 567.71 59.02 C 567.24 49.75 572.93 41.06 581.48 37.59 C 591.68 33.24 604.46 37.32 610.48 46.55 C 612.44 49.99 614.28 54.56 613.58 58.57 C 612.92 61.01 610.06 61.07 608.53 59.44 C 605.43 56.52 604.52 51.51 601.85 48.10 C 596.73 41.38 587.28 38.91 579.60 42.55 C 574.48 44.82 571.09 49.51 570.40 55.05 C 569.34 64.59 574.89 74.23 583.23 78.75 C 588.33 81.42 594.27 83.08 600.06 82.72 C 608.77 82.18 617.22 77.43 623.01 71.03 C 631.76 61.44 633.72 47.07 628.69 35.21 C 623.22 21.87 609.22 13.18 595.05 12.49 C 583.91 11.91 572.69 16.45 563.48 22.43 C 542.41 36.72 528.17 59.82 507.64 73.67 C 495.91 81.69 482.35 86.54 467.98 85.59 C 459.37 85.01 451.13 81.07 445.84 74.16 C 441.35 68.35 439.64 60.18 442.21 53.20 C 444.88 45.54 451.99 39.75 459.75 37.78 C 469.17 35.27 480.00 39.35 485.30 47.54 C 486.79 49.97 486.03 52.12 485.49 54.67 C 482.99 54.62 480.94 55.14 479.19 52.89 C 474.67 47.61 470.34 42.62 463.04 41.50 C 454.19 40.50 444.09 47.77 443.63 57.01 C 442.94 66.39 449.07 75.97 457.98 79.11 C 469.15 83.61 481.84 81.48 492.54 76.68 C 500.14 73.21 506.96 67.68 513.15 62.16 C 525.36 50.66 535.30 37.10 547.75 25.76 C 559.25 15.37 574.24 6.38 590.01 5.32 Z" fill="#000000" />
<path d="M 682.98 5.30 C 697.21 4.26 711.22 10.22 722.60 18.36 C 743.74 33.34 756.87 57.08 777.69 71.28 C 783.84 75.77 790.88 78.69 798.24 80.48 C 799.71 80.85 801.28 80.87 802.78 80.76 C 800.62 79.71 798.25 79.08 796.04 78.12 C 788.44 74.81 782.24 68.88 778.24 61.65 C 774.37 54.53 773.17 46.16 774.43 38.19 C 774.94 35.44 776.04 32.07 778.31 30.28 C 779.82 29.16 781.94 28.76 783.25 30.38 C 784.40 33.37 783.34 36.91 782.65 39.92 C 781.33 44.76 781.54 50.09 782.27 55.02 C 784.11 65.58 792.10 74.33 802.00 78.08 C 804.78 79.05 807.70 79.61 810.52 80.42 C 808.08 80.91 805.62 81.27 803.19 81.79 C 810.49 81.63 817.25 81.53 823.90 78.07 C 833.04 73.66 838.88 61.03 834.45 51.52 C 830.73 44.01 820.47 38.99 812.49 42.60 C 807.03 44.86 803.90 48.95 800.09 53.18 C 798.65 54.92 796.56 55.00 794.51 54.45 C 792.23 52.00 793.39 48.50 795.15 46.12 C 800.30 39.70 808.85 36.11 817.04 37.27 C 826.12 38.46 834.57 44.91 837.52 53.66 C 840.12 61.75 837.52 70.65 831.60 76.58 C 824.64 83.76 814.77 86.41 804.97 85.60 C 789.80 84.83 776.24 77.79 764.71 68.28 C 748.28 54.66 735.99 36.89 718.16 23.90 C 710.74 18.61 702.05 14.53 693.03 12.98 C 679.77 10.73 665.62 15.60 656.75 25.74 C 649.14 34.37 646.26 46.66 649.34 57.76 C 652.46 69.81 662.97 79.21 674.93 82.05 C 682.39 83.89 690.70 82.02 697.26 78.23 C 703.08 74.59 707.47 68.75 708.78 61.95 C 709.99 56.52 709.12 50.84 705.42 46.56 C 699.54 40.07 689.15 39.04 681.99 44.03 C 677.87 46.70 675.90 50.66 673.98 55.00 C 672.84 57.31 671.03 60.82 668.00 60.56 C 664.58 59.21 665.87 54.59 666.67 51.92 C 669.69 41.10 681.33 34.70 692.12 36.03 C 699.84 36.90 706.84 42.01 709.94 49.14 C 711.99 53.39 712.12 58.35 711.47 62.95 C 709.78 72.42 702.69 80.30 694.00 84.08 C 675.50 92.09 652.21 81.70 644.81 63.18 C 640.02 51.83 641.35 38.05 647.43 27.43 C 654.59 14.53 668.31 6.19 682.98 5.30 Z" fill="#000000" />
<path d="M 523.09 31.06 C 524.34 35.51 522.71 40.95 521.33 45.25 C 518.69 53.82 512.93 61.46 505.42 66.36 C 509.02 60.77 512.91 55.89 514.53 49.26 C 516.51 42.96 513.71 35.73 515.74 29.75 C 517.21 26.05 522.26 27.89 523.09 31.06 Z" fill="#000000" />
<path d="M 759.13 28.12 C 761.14 27.16 763.34 27.86 763.94 30.11 C 765.63 36.51 763.03 43.16 765.16 49.81 C 766.85 56.15 770.60 60.87 774.09 66.23 C 763.66 59.78 757.50 47.95 756.05 35.99 C 755.81 33.08 756.08 29.47 759.13 28.12 Z" fill="#000000" />
<path d="M 498.99 29.30 C 501.99 29.55 503.57 32.99 504.43 35.48 C 507.90 48.44 503.52 62.60 493.55 71.54 C 487.21 77.26 477.98 81.73 469.27 80.79 C 472.47 79.22 476.01 78.84 479.25 77.42 C 487.02 73.86 493.38 67.31 496.23 59.20 C 497.83 54.66 497.90 49.64 497.72 44.87 C 497.55 40.68 495.43 36.21 495.82 32.07 C 495.93 30.40 497.31 29.06 498.99 29.30 Z" fill="#000000" />
<path d="M 438.37 46.73 C 436.57 50.84 434.41 54.34 434.30 59.00 C 434.05 64.19 436.28 68.12 438.38 72.64 C 432.41 69.84 427.07 65.73 421.26 62.68 C 418.75 61.84 415.64 62.37 413.00 62.24 C 276.59 62.27 140.17 62.24 3.76 62.25 C 3.76 60.50 3.76 58.76 3.76 57.01 C 139.18 56.98 274.59 57.00 410.00 57.00 C 413.60 56.93 417.28 57.23 420.86 56.82 C 426.88 53.88 432.25 49.55 438.37 46.73 Z" fill="#000000" />
<path d="M 841.40 46.83 C 846.87 49.54 851.76 53.00 857.01 56.02 C 858.31 56.86 859.40 57.01 860.93 57.00 C 999.21 56.98 1137.49 57.01 1275.76 56.99 C 1275.76 58.74 1275.76 60.49 1275.76 62.24 C 1139.84 62.27 1003.92 62.25 868.00 62.25 C 864.92 62.34 861.58 61.92 858.57 62.56 C 852.66 65.56 847.29 69.82 841.20 72.53 C 842.77 68.99 844.62 65.99 845.09 62.04 C 845.72 57.86 844.59 53.99 842.82 50.24 C 842.34 49.11 841.86 47.98 841.40 46.83 Z" fill="#000000" /></svg>